<?xml version="1.0" standalone="no"?><!DOCTYPE svg PUBLIC "-//W3C//DTD SVG 1.1//EN" "http://www.w3.org/Graphics/SVG/1.1/DTD/svg11.dtd"><svg t="1724747582966" class="icon" viewBox="0 0 1024 1024" version="1.1" xmlns="http://www.w3.org/2000/svg" p-id="2015" xmlns:xlink="http://www.w3.org/1999/xlink" width="200" height="200"><path d="M530.055 608.063l28.284-28.284 248.192 248.192-28.284 28.284z" fill="#444D68" p-id="2016"></path><path d="M847.1 828.2l-68.5 68.5c-3.9 3.9-10.3 3.9-14.1 0L635.6 767.9c-3.9-3.9-3.9-10.3 0-14.1l68.5-68.5c3.9-3.9 10.3-3.9 14.1 0l128.9 128.9c3.9 3.8 3.9 10.1 0 14z" fill="#F9CC12" p-id="2017"></path><path d="M771.5 919.7c-8 0-15.6-3.1-21.2-8.8L621.4 782.1c-11.7-11.7-11.7-30.7 0-42.4l68.6-68.5c5.7-5.7 13.2-8.8 21.2-8.8s15.6 3.1 21.2 8.8L861.3 800c11.7 11.7 11.7 30.7 0 42.4l-68.6 68.5c-5.7 5.7-13.2 8.8-21.2 8.8zM656.8 760.9l114.7 114.7 54.4-54.4-114.7-114.8-54.4 54.5z" fill="#444D68" p-id="2018"></path><path d="M664.284 750.587l14.142-14.142L800.542 858.56 786.4 872.703zM687.881 728.99l14.142-14.142L824.14 836.964l-14.142 14.142z" fill="#444D68" p-id="2019"></path><path d="M442.4 425m-263 0a263 263 0 1 0 526 0 263 263 0 1 0-526 0Z" fill="#186FED" p-id="2020"></path><path d="M442.4 708.1c-75.6 0-146.7-29.4-200.1-82.9-53.5-53.5-82.9-124.5-82.9-200.1s29.4-146.7 82.9-200.1c53.5-53.5 124.5-82.9 200.1-82.9s146.7 29.4 200.1 82.9c53.5 53.5 82.9 124.5 82.9 200.1S696 571.8 642.5 625.2C589 678.6 518 708.1 442.4 708.1z m0-526.1c-64.9 0-126 25.3-171.9 71.2S199.3 360.1 199.3 425s25.3 126 71.2 171.9 106.9 71.2 171.9 71.2 126-25.3 171.9-71.2S685.4 490 685.4 425s-25.3-126-71.2-171.9S507.3 182 442.4 182z" fill="#444D68" p-id="2021"></path><path d="M625.9 405.1c-4.8 0-9.1-3.5-9.9-8.4-6.6-40.8-27.6-78.1-59.1-105.2-31.9-27.4-72.6-42.4-114.6-42.4-5.5 0-10-4.5-10-10s4.5-10 10-10c46.8 0 92.2 16.8 127.6 47.3 35.1 30.1 58.5 71.8 65.8 117.2 0.9 5.5-2.8 10.6-8.3 11.5h-1.5z" fill="#FFFFFF" p-id="2022"></path><path d="M627.4 457.2m-11.8 0a11.8 11.8 0 1 0 23.6 0 11.8 11.8 0 1 0-23.6 0Z" fill="#FFFFFF" p-id="2023"></path></svg>